<svg width="207" height="269" viewBox="0 0 207 269" fill="none" xmlns="http://www.w3.org/2000/svg">
<path fill-rule="evenodd" clip-rule="evenodd" d="M207 217.229C198.144 217.279 190.035 218.727 176.118 203.912L127.964 146.977C122.883 140.717 116.121 134.922 106.512 131.009C199.931 107.837 182.859 0.367188 92.6767 0.367188H47.0734L0 46.2055H69.1912C125.003 46.2055 138.254 101.418 103.469 129.866C96.3545 127.41 87.8106 125.942 77.3868 125.942H46.6124L0 171.341H30.9076C52.9281 171.341 77.8068 173.118 92.3899 191.018C94.1673 193.2 135.729 243.9 138.07 247.03C160.301 276.845 184.682 266.337 184.682 266.337L184.693 266.322L207 217.229Z" fill="#013A98"/>
</svg>
