<svg xmlns="http://www.w3.org/2000/svg" width="122" height="131" viewBox="0 0 122 131" fill="none">
  <path d="M29.625 74.125H44.375V88.875H29.625V74.125ZM132.875 29.875V133.125C132.875 141.311 126.311 147.875 118.125 147.875H14.875C10.9631 147.875 7.21134 146.321 4.44517 143.555C1.67901 140.789 0.125 137.037 0.125 133.125V29.875C0.125 21.7625 6.7625 15.125 14.875 15.125H22.25V0.375H37V15.125H96V0.375H110.75V15.125H118.125C122.037 15.125 125.789 16.679 128.555 19.4452C131.321 22.2113 132.875 25.9631 132.875 29.875ZM14.875 44.625H118.125V29.875H14.875V44.625ZM118.125 133.125V59.375H14.875V133.125H118.125ZM88.625 88.875H103.375V74.125H88.625V88.875ZM59.125 88.875H73.875V74.125H59.125V88.875Z" fill="#183B56" fill-opacity="0.32"/>
</svg>