<svg width="142" height="208" viewBox="0 0 142 208" fill="none" xmlns="http://www.w3.org/2000/svg">
<path id="Vector" opacity="0.4" d="M53.5918 121.211H80.3821V145.417H53.5918V121.211ZM241.124 48.5921V218.035C241.124 231.47 229.202 242.242 214.334 242.242H26.8015C19.6963 242.242 12.8821 239.691 7.85793 235.152C2.83377 230.612 0.0112305 224.455 0.0112305 218.035V48.5921C0.0112305 35.2787 12.0669 24.3859 26.8015 24.3859H40.1967V0.179688H66.987V24.3859H174.148V0.179688H200.938V24.3859H214.334C221.439 24.3859 228.253 26.9362 233.277 31.4757C238.301 36.0153 241.124 42.1722 241.124 48.5921ZM26.8015 72.7983H214.334V48.5921H26.8015V72.7983ZM214.334 218.035V97.0045H26.8015V218.035H214.334ZM160.753 145.417H187.543V121.211H160.753V145.417ZM107.172 145.417H133.963V121.211H107.172V145.417Z" fill="#183B56" fill-opacity="0.32"/>
</svg>
