<svg width="14" height="18" viewBox="0 0 14 18" fill="none" xmlns="http://www.w3.org/2000/svg">
<path fill-rule="evenodd" clip-rule="evenodd" d="M9.18683 1.15918C9.18683 1.10317 9.16459 1.04946 9.12498 1.00985C9.08537 0.970248 9.03166 0.947998 8.97565 0.947998H3.06243C2.44632 0.947998 1.85544 1.19275 1.41979 1.6284C0.984129 2.06406 0.73938 2.65494 0.73938 3.27105V15.0975C0.73938 15.7136 0.984129 16.3045 1.41979 16.7401C1.85544 17.1758 2.44632 17.4205 3.06243 17.4205H11.5099C12.126 17.4205 12.7169 17.1758 13.1525 16.7401C13.5882 16.3045 13.8329 15.7136 13.8329 15.0975V6.77421C13.8329 6.7182 13.8107 6.66448 13.7711 6.62488C13.7315 6.58527 13.6778 6.56302 13.6217 6.56302H9.82039C9.65236 6.56302 9.49122 6.49627 9.3724 6.37746C9.25358 6.25864 9.18683 6.09749 9.18683 5.92946V1.15918ZM9.82039 9.39545C9.98842 9.39545 10.1496 9.4622 10.2684 9.58102C10.3872 9.69983 10.454 9.86098 10.454 10.029C10.454 10.197 10.3872 10.3582 10.2684 10.477C10.1496 10.5958 9.98842 10.6626 9.82039 10.6626H4.75192C4.58389 10.6626 4.42274 10.5958 4.30393 10.477C4.18511 10.3582 4.11836 10.197 4.11836 10.029C4.11836 9.86098 4.18511 9.69983 4.30393 9.58102C4.42274 9.4622 4.58389 9.39545 4.75192 9.39545H9.82039ZM9.82039 12.7744C9.98842 12.7744 10.1496 12.8412 10.2684 12.96C10.3872 13.0788 10.454 13.24 10.454 13.408C10.454 13.576 10.3872 13.7372 10.2684 13.856C10.1496 13.9748 9.98842 14.0416 9.82039 14.0416H4.75192C4.58389 14.0416 4.42274 13.9748 4.30393 13.856C4.18511 13.7372 4.11836 13.576 4.11836 13.408C4.11836 13.24 4.18511 13.0788 4.30393 12.96C4.42274 12.8412 4.58389 12.7744 4.75192 12.7744H9.82039Z" fill="black"/>
</svg>
