<svg xmlns="http://www.w3.org/2000/svg" width="141" height="153" viewBox="0 0 141 153" fill="none">
  <path opacity="0.4" d="M-20.8333 127.5H2.25V153H-20.8333V127.5ZM140.75 51V229.5C140.75 243.652 130.478 255 117.667 255H-43.9167C-50.0387 255 -55.9101 252.313 -60.239 247.531C-64.568 242.749 -67 236.263 -67 229.5V51C-67 36.975 -56.6125 25.5 -43.9167 25.5H-32.375V0H-9.29166V25.5H83.0417V0H106.125V25.5H117.667C123.789 25.5 129.66 28.1866 133.989 32.9688C138.318 37.751 140.75 44.237 140.75 51ZM-43.9167 76.5H117.667V51H-43.9167V76.5ZM117.667 229.5V102H-43.9167V229.5H117.667ZM71.5 153H94.5833V127.5H71.5V153ZM25.3333 153H48.4167V127.5H25.3333V153Z" fill="#183B56" fill-opacity="0.32"/>
</svg>