<svg width="62" height="62" viewBox="0 0 62 62" fill="none" xmlns="http://www.w3.org/2000/svg">
<path d="M23.2496 35.4805C21.3363 35.4805 19.8105 37.0305 19.8105 38.9195C19.8105 40.8086 21.3605 42.3586 23.2496 42.3586C24.7027 42.3586 25.9379 41.4383 26.4223 40.1789L23.9277 38.9195L26.4223 37.6602C25.9379 36.4008 24.7027 35.4805 23.2496 35.4805Z" fill="white"/>
<path d="M39.3062 42.3826C40.7594 42.3826 41.9945 41.4623 42.4789 40.1787L39.9844 38.9193L42.4789 37.66C41.9945 36.3764 40.7352 35.4561 39.3062 35.4561C37.393 35.4561 35.8672 37.0061 35.8672 38.8951C35.8672 40.8326 37.393 42.3826 39.3062 42.3826Z" fill="white"/>
<path d="M50.5922 44.3932C50.0836 44.3932 49.6719 43.9814 49.6719 43.4729C49.6719 42.9643 50.0836 42.5525 50.5922 42.5525C52.6023 42.5525 54.225 40.9299 54.225 38.9197C54.225 36.9096 52.6023 35.2869 50.5922 35.2869C50.0836 35.2869 49.6719 34.8752 49.6719 34.3666C49.6719 33.858 50.0836 33.4463 50.5922 33.4463C53.6195 33.4463 56.0656 35.8924 56.0656 38.9197C56.0656 41.9471 53.5953 44.3932 50.5922 44.3932Z" fill="white"/>
<path d="M11.6961 44.3932C8.66875 44.3932 6.22266 41.9471 6.22266 38.9197C6.22266 35.8924 8.66875 33.4463 11.6961 33.4463C12.2047 33.4463 12.6164 33.858 12.6164 34.3666C12.6164 34.8752 12.2047 35.2869 11.6961 35.2869C9.68594 35.2869 8.06328 36.9096 8.06328 38.9197C8.06328 40.9299 9.68594 42.5525 11.6961 42.5525C12.2047 42.5525 12.6164 42.9643 12.6164 43.4729C12.6164 43.9814 12.2047 44.3932 11.6961 44.3932Z" fill="white"/>
<path d="M31.0469 59.5777C19.4703 59.5777 11.0906 51.0285 11.0906 39.234L11.0664 38.2168C11.0664 37.7566 11.0906 36.691 11.2359 34.5598C11.2602 34.0512 11.6961 33.6637 12.2047 33.7121C12.7133 33.7363 13.1008 34.1723 13.0523 34.6808C12.9555 36.0371 12.8828 37.6598 12.8828 38.1684L12.907 39.2098C12.907 50.1324 20.3422 57.7371 30.9742 57.7371C30.9984 57.7371 31.0227 57.7371 31.0469 57.7371C41.6547 57.7371 49.0898 50.1324 49.0898 39.234C49.0898 39.234 49.0898 39.234 49.1383 37.3449C49.1383 36.8363 49.5016 36.4004 49.9859 36.3762C50.4945 36.3519 50.9547 36.7152 50.9547 37.2238C50.9062 39.3551 50.9305 39.234 50.9305 39.234C50.9547 51.0285 42.575 59.5777 31.0469 59.5777Z" fill="white"/>
<path d="M52.7475 35.7711V34.9961L51.8272 34.8992L51.9241 33.9305H51.9725C51.9725 33.5188 51.9725 33.107 51.9725 32.6469C52.1178 25.9383 50.1803 20.368 46.378 16.493C42.721 12.7633 37.3686 10.7773 30.9022 10.7773H30.8296H30.7569C24.2905 10.7773 18.9382 12.7391 15.2811 16.493C11.4788 20.368 9.5655 25.9383 9.68659 32.5984C9.68659 33.0586 9.68659 33.4945 9.68659 33.9062H9.71081L9.78347 34.8266L8.86316 34.9477V35.7469H7.89441L7.87019 34.875C7.84597 34.1484 7.82175 33.4219 7.84597 32.6227C7.70066 25.4781 9.80769 19.4477 13.9491 15.2336C17.9694 11.1406 23.7819 8.96094 30.7327 8.96094H30.878C37.853 8.96094 43.6413 11.1164 47.6616 15.2094C51.803 19.4477 53.91 25.4781 53.7647 32.6469C53.7889 33.3977 53.7647 34.1484 53.7405 34.875L53.7163 35.7469L52.7475 35.7711Z" fill="white"/>
<path d="M11.6969 35.6497C11.2852 35.6497 10.8977 35.3591 10.8008 34.9474C10.6797 34.463 10.9703 33.9544 11.4789 33.8333C17.1703 32.4286 19.6164 26.4466 19.6406 26.3739C19.8344 25.8895 20.3672 25.6716 20.8274 25.8653C21.2875 26.0591 21.5297 26.5919 21.336 27.052C21.2149 27.3427 18.5024 33.9786 11.8906 35.6013C11.8422 35.6497 11.7696 35.6497 11.6969 35.6497Z" fill="white"/>
<path d="M49.7673 39.3306C49.5009 39.3306 49.2103 39.2095 49.0407 38.9673C46.5462 35.7462 42.9134 34.9712 39.0384 34.1478C37.1251 33.7361 35.115 33.3243 33.1775 32.5736C26.154 29.8853 22.4001 23.7337 22.2548 23.4673C21.9884 23.0314 22.1337 22.4743 22.5696 22.2079C23.0056 21.9415 23.5626 22.0868 23.829 22.5228C23.8532 22.5712 27.4134 28.4079 33.8314 30.8298C35.6478 31.5079 37.5611 31.9196 39.4017 32.3071C43.422 33.1548 47.5634 34.0509 50.4696 37.8048C50.7845 38.2165 50.7118 38.7736 50.3001 39.0884C50.1548 39.2821 49.9611 39.3306 49.7673 39.3306Z" fill="white"/>
<path d="M49.7673 39.3306C49.5009 39.3306 49.2103 39.2095 49.0407 38.9673C46.5462 35.7462 42.9134 34.9712 39.0384 34.1478C37.1251 33.7361 35.115 33.3243 33.1775 32.5736C26.154 29.8853 22.4001 23.7337 22.2548 23.4673C21.9884 23.0314 22.1337 22.4743 22.5696 22.2079C23.0056 21.9415 23.5626 22.0868 23.829 22.5228C23.8532 22.5712 27.4134 28.4079 33.8314 30.8298C35.6478 31.5079 37.5611 31.9196 39.4017 32.3071C43.422 33.1548 47.5634 34.0509 50.4696 37.8048C50.7845 38.2165 50.7118 38.7736 50.3001 39.0884C50.1548 39.2821 49.9611 39.3306 49.7673 39.3306Z" fill="white"/>
<path d="M40.0816 11.2131C39.573 11.2131 39.1613 10.8014 39.1613 10.2928C39.1613 6.95059 35.4074 4.23809 30.8301 4.23809C26.2285 4.23809 22.4988 6.95059 22.4988 10.2928C22.4988 10.8014 22.0871 11.2131 21.5785 11.2131C21.0699 11.2131 20.6582 10.8014 20.6582 10.2928C20.6582 5.9334 25.2113 2.39746 30.8301 2.39746C36.4488 2.39746 41.002 5.9334 41.002 10.2928C41.002 10.8256 40.5902 11.2131 40.0816 11.2131Z" fill="white"/>
<path d="M12.3265 34.7055C12.1085 33.4461 10.8976 32.6226 9.66242 32.8406C9.17805 32.9133 4.11633 34.9476 5.42414 39.864C6.19914 42.7703 9.22648 44.4898 12.1327 43.7148C12.6171 43.5695 12.8109 43.0851 12.7866 42.6008C12.7382 42.1648 12.496 35.65 12.3265 34.7055Z" fill="white"/>
<path d="M49.6731 34.7055C49.8911 33.4461 51.102 32.6226 52.3372 32.8406C52.8215 32.9133 57.9075 34.9476 56.5754 39.864C55.8004 42.7703 52.7731 44.4898 49.8668 43.7148C49.3825 43.5695 49.1887 43.0851 49.2129 42.6008C49.2614 42.1648 49.5036 35.65 49.6731 34.7055Z" fill="white"/>
<path d="M53.2812 24.582L52.0461 24.6547C52.1914 27.1008 52.2398 28.5297 52.2398 28.7234L52.2156 30.3703C52.2156 42.1648 44.7805 50.6656 33.8336 51.8766C33.3492 51.2227 32.3563 50.7867 31.1938 50.7867C29.5469 50.7867 28.2148 51.6828 28.2148 52.7727C28.2148 53.8625 29.5469 54.7586 31.1938 54.7586C32.6711 54.7586 33.882 54.032 34.1 53.1117C36.207 52.8695 38.2414 52.3609 40.1305 51.6102C42.843 50.5203 45.2164 48.9219 47.2023 46.8875C49.1883 44.8531 50.7383 42.407 51.8039 39.6219C52.8937 36.7883 53.4508 33.6883 53.4508 30.3945L53.475 28.7477C53.475 28.5539 53.4266 27.125 53.2812 24.582Z" fill="white"/>
<path d="M54.8053 35.7955L52.6499 35.6986L52.6741 34.8268C52.6983 34.1244 52.6983 33.3978 52.6983 32.6713V32.6471V32.6229C52.8436 25.7447 50.8335 19.9807 46.8858 15.9604C43.0835 12.0854 37.5374 10.0268 30.8772 10.0268H30.7561C24.096 10.0268 18.5499 12.0854 14.7475 15.9604C10.7999 19.9807 8.78972 25.7205 8.93503 32.5744V32.5986V32.6229C8.93503 33.3979 8.93503 34.1244 8.95925 34.8268L8.98347 35.6986L6.828 35.7955L6.80378 34.9236C6.77956 34.1728 6.75534 33.4221 6.77956 32.6229C6.63425 25.1877 8.83816 18.915 13.1975 14.483C17.4116 10.1721 23.4905 7.89551 30.7561 7.89551H30.9014C38.1671 7.89551 44.246 10.1721 48.46 14.483C52.7952 18.915 55.0233 25.2119 54.878 32.6713C54.9022 33.4463 54.878 34.1971 54.8538 34.9479L54.8053 35.7955Z" fill="white"/>
<path d="M30.8773 9.73535L30.9016 11.8908H30.8289L30.8047 9.73535H30.8773Z" fill="white"/>
</svg>
