<svg width="45" height="65" viewBox="0 0 45 65" fill="none" xmlns="http://www.w3.org/2000/svg">
<path d="M7.05099 6.40282C10.906 2.50211 16.0768 0.220252 21.5259 0.0151298C26.975 -0.189992 32.2992 1.6968 36.4301 5.29689C40.557 1.70236 45.874 -0.182894 51.3165 0.0185632C56.7591 0.220021 61.9255 2.49332 65.7816 6.38335C69.6377 10.2734 71.8988 15.493 72.1122 20.9973C72.3256 26.5017 70.4757 31.8844 66.9326 36.0679L41.1262 62.2573C39.9405 63.4569 38.3503 64.1589 36.6745 64.2225C34.9986 64.286 33.3609 63.7065 32.0897 62.6001L31.7242 62.2573L5.92102 36.0713C2.3789 31.8912 0.527468 26.5127 0.736968 21.0114C0.946469 15.5101 3.20146 10.295 7.05099 6.40282ZM11.7503 11.1526C9.03159 13.9024 7.46435 17.6056 7.37399 21.4934C7.28364 25.3812 8.67712 29.1548 11.2651 32.0308L11.7503 32.5451L36.4268 57.5041L54.051 39.6748L42.3027 27.792L38.7798 31.3551C37.8541 32.2919 36.7551 33.035 35.5455 33.5421C34.3358 34.0492 33.0393 34.3104 31.7298 34.3107C29.0853 34.3114 26.5489 33.2494 24.6785 31.3585C22.8081 29.4676 21.757 26.9026 21.7563 24.2278C21.7557 21.553 22.8056 18.9875 24.6752 17.0957L31.661 10.0299C28.8813 7.7852 25.4016 6.61588 21.8465 6.73169C18.2913 6.84751 14.8933 8.24088 12.2621 10.6618L11.7503 11.1526ZM39.953 20.6622C40.5762 20.0321 41.4214 19.678 42.3027 19.678C43.1839 19.678 44.0291 20.0321 44.6523 20.6622L58.7503 34.9217L61.1033 32.5451C63.8666 29.7521 65.4398 25.9765 65.4864 22.0255C65.533 18.0746 64.0493 14.262 61.3527 11.4032C58.656 8.5444 54.9605 6.86627 51.0564 6.72772C47.1523 6.58917 43.3496 8.0012 40.4615 10.6618L39.953 11.1526L29.3778 21.8488C28.8018 22.4311 28.4571 23.207 28.4094 24.0293C28.3616 24.8516 28.6139 25.663 29.1186 26.3095L29.3778 26.6053C29.9539 27.1875 30.7213 27.5355 31.5342 27.5832C32.3472 27.6309 33.1492 27.375 33.788 26.8642L34.0772 26.6053L39.953 20.6622Z" fill="black" fill-opacity="0.2"/>
</svg>
