<svg width="60" height="71" viewBox="0 0 60 71" fill="none" xmlns="http://www.w3.org/2000/svg">
<path d="M89.1424 70.7962C89.1424 70.7962 95.0266 70.7962 95.0266 64.9452C95.0266 59.0943 89.1424 41.5415 65.6057 41.5415C42.0691 41.5415 36.1849 59.0943 36.1849 64.9452C36.1849 70.7962 42.0691 70.7962 42.0691 70.7962H89.1424ZM42.1985 64.9452C42.155 64.9393 42.1119 64.9315 42.0691 64.9218C42.0749 63.3772 43.0517 58.8954 46.541 54.8583C49.7891 51.0727 55.4967 47.3925 65.6057 47.3925C75.7088 47.3925 81.4165 51.0786 84.6704 54.8583C88.1597 58.8954 89.1306 63.3831 89.1424 64.9218L89.0953 64.9335C89.068 64.9381 89.0405 64.9421 89.013 64.9452H42.1985ZM65.6057 29.8397C68.7269 29.8397 71.7202 28.6068 73.9272 26.4123C76.1342 24.2178 77.3741 21.2414 77.3741 18.1379C77.3741 15.0343 76.1342 12.0579 73.9272 9.8634C71.7202 7.66888 68.7269 6.43601 65.6057 6.43601C62.4846 6.43601 59.4913 7.66888 57.2843 9.8634C55.0773 12.0579 53.8374 15.0343 53.8374 18.1379C53.8374 21.2414 55.0773 24.2178 57.2843 26.4123C59.4913 28.6068 62.4846 29.8397 65.6057 29.8397ZM83.2582 18.1379C83.2582 20.4429 82.8016 22.7254 81.9145 24.855C81.0274 26.9846 79.7271 28.9196 78.0879 30.5495C76.4488 32.1795 74.5028 33.4724 72.3611 34.3545C70.2194 35.2366 67.9239 35.6906 65.6057 35.6906C63.2876 35.6906 60.9921 35.2366 58.8504 34.3545C56.7087 33.4724 54.7627 32.1795 53.1235 30.5495C51.4843 28.9196 50.1841 26.9846 49.2969 24.855C48.4098 22.7254 47.9532 20.4429 47.9532 18.1379C47.9532 13.4826 49.813 9.01795 53.1235 5.72617C56.434 2.43439 60.924 0.585083 65.6057 0.585083C70.2875 0.585083 74.7775 2.43439 78.0879 5.72617C81.3984 9.01795 83.2582 13.4826 83.2582 18.1379ZM41.6925 43.1798C39.3387 42.4428 36.9124 41.9583 34.4549 41.7346C33.0741 41.6041 31.6878 41.5396 30.3007 41.5415C6.76405 41.5415 0.879883 59.0943 0.879883 64.9452C0.879883 68.8478 2.83931 70.7962 6.76405 70.7962H31.5717C30.6994 68.9696 30.2644 66.967 30.3007 64.9452C30.3007 59.0358 32.5191 52.9977 36.7145 47.9542C38.1443 46.234 39.8095 44.625 41.6925 43.1798ZM29.83 47.3925C26.3475 52.5955 24.4662 58.6954 24.4166 64.9452H6.76405C6.76405 63.424 7.72905 58.9188 11.236 54.8583C14.4429 51.1371 20.0152 47.5095 29.83 47.3983V47.3925ZM9.70613 21.0633C9.70613 16.408 11.5659 11.9434 14.8764 8.65163C18.1869 5.35985 22.6769 3.51055 27.3586 3.51055C32.0404 3.51055 36.5304 5.35985 39.8408 8.65163C43.1513 11.9434 45.0111 16.408 45.0111 21.0633C45.0111 25.7186 43.1513 30.1832 39.8408 33.475C36.5304 36.7668 32.0404 38.6161 27.3586 38.6161C22.6769 38.6161 18.1869 36.7668 14.8764 33.475C11.5659 30.1832 9.70613 25.7186 9.70613 21.0633ZM27.3586 9.36147C24.2375 9.36147 21.2442 10.5943 19.0372 12.7889C16.8302 14.9834 15.5903 17.9598 15.5903 21.0633C15.5903 24.1668 16.8302 27.1433 19.0372 29.3378C21.2442 31.5323 24.2375 32.7652 27.3586 32.7652C30.4798 32.7652 33.4731 31.5323 35.6801 29.3378C37.8871 27.1433 39.127 24.1668 39.127 21.0633C39.127 17.9598 37.8871 14.9834 35.6801 12.7889C33.4731 10.5943 30.4798 9.36147 27.3586 9.36147Z" fill="white" fill-opacity="0.37"/>
</svg>
