<svg width="36" height="30" viewBox="0 0 36 30" fill="none" xmlns="http://www.w3.org/2000/svg">
<path d="M31.9998 26.3998H35.1998V29.5998H-0.000244141V26.3998H3.19976V2.3998C3.19976 1.97546 3.36833 1.56849 3.66839 1.26843C3.96844 0.968376 4.37541 0.799805 4.79976 0.799805H20.7998C21.2241 0.799805 21.6311 0.968376 21.9311 1.26843C22.2312 1.56849 22.3998 1.97546 22.3998 2.3998V26.3998H28.7998V13.5998H25.5998V10.3998H30.3998C30.8241 10.3998 31.2311 10.5684 31.5311 10.8684C31.8312 11.1685 31.9998 11.5755 31.9998 11.9998V26.3998ZM6.39976 3.9998V26.3998H19.1998V3.9998H6.39976ZM9.59976 13.5998H15.9998V16.7998H9.59976V13.5998ZM9.59976 7.1998H15.9998V10.3998H9.59976V7.1998Z" fill="#285196"/>
</svg>
