<svg width="18" height="19" viewBox="0 0 18 19" fill="none" xmlns="http://www.w3.org/2000/svg">
<path d="M11.7707 10.1378L11.3772 9.76272L11.7712 10.1373L11.7707 10.1378ZM15.0587 12.9719L15.4522 13.3469L15.0582 12.9724L15.0587 12.9719ZM3.80599 5.04253C3.80303 4.9712 3.78605 4.90115 3.75602 4.83639C3.72599 4.77163 3.6835 4.71341 3.63097 4.66507C3.57844 4.61673 3.51691 4.57921 3.44988 4.55465C3.38285 4.53009 3.31163 4.51897 3.24031 4.52193C3.16898 4.52489 3.09894 4.54187 3.03417 4.5719C2.96941 4.60193 2.91119 4.64443 2.86285 4.69695C2.81451 4.74948 2.77699 4.81102 2.75243 4.87805C2.72787 4.94508 2.71675 5.01629 2.71971 5.08762L3.80548 5.04304L3.80599 5.04253ZM4.4388 2.3796C4.38958 2.43131 4.35103 2.49221 4.32534 2.55883C4.29965 2.62544 4.28734 2.69646 4.2891 2.76783C4.29086 2.8392 4.30666 2.90952 4.3356 2.97479C4.36454 3.04005 4.40605 3.09897 4.45776 3.1482C4.50947 3.19742 4.57037 3.23597 4.63699 3.26166C4.7036 3.28734 4.77461 3.29966 4.84598 3.2979C4.91736 3.29614 4.98768 3.28034 5.05294 3.2514C5.11821 3.22246 5.17713 3.18095 5.22636 3.12924L4.4388 2.3796ZM8.37811 13.7978C8.43875 13.8376 8.50674 13.8649 8.57807 13.878C8.64941 13.8911 8.72264 13.8897 8.79346 13.8741C8.86428 13.8584 8.93125 13.8288 8.99042 13.7868C9.0496 13.7449 9.09978 13.6916 9.13802 13.6299C9.17625 13.5683 9.20177 13.4996 9.21306 13.428C9.22434 13.3564 9.22118 13.2832 9.20375 13.2128C9.18632 13.1424 9.15497 13.0762 9.11156 13.0181C9.06814 12.96 9.01354 12.9112 8.95096 12.8745L8.37811 13.7978ZM11.4176 13.8726C11.3476 13.8588 11.2755 13.8589 11.2055 13.8729C11.1355 13.8869 11.0689 13.9145 11.0095 13.9542C10.9502 13.994 10.8993 14.045 10.8597 14.1044C10.8201 14.1638 10.7925 14.2305 10.7787 14.3005C10.7648 14.3705 10.7649 14.4426 10.7789 14.5127C10.7929 14.5827 10.8205 14.6493 10.8603 14.7086C10.9 14.7679 10.951 14.8188 11.0104 14.8585C11.0699 14.8981 11.1365 14.9256 11.2065 14.9395L11.4176 13.8726ZM11.8501 10.8434L12.1647 10.5124L11.3772 9.76272L11.0625 10.0937L11.8501 10.8434ZM13.1562 10.3612L14.451 11.0965L14.987 10.1506L13.6927 9.41583L13.1562 10.3612ZM14.6647 12.5973L13.6824 13.6308L14.47 14.3794L15.4517 13.3464L14.6637 12.5973H14.6647ZM6.86449 11.1436C4.26049 8.39821 3.8475 6.06476 3.80599 5.04253L2.71971 5.08762C2.77198 6.35733 3.28079 8.94545 6.07591 11.8912L6.86449 11.1436ZM7.86673 6.64376L8.06503 6.43522L7.27697 5.68609L7.07816 5.89515L7.86673 6.64376ZM8.24642 3.82917L7.39994 2.62197L6.5094 3.24606L7.35639 4.45276L8.24642 3.82917ZM7.4727 6.2692L7.07816 5.89515L7.06996 5.90335L7.06073 5.91462C7.03391 5.94507 7.00958 5.97763 6.98797 6.01198C6.94245 6.08309 6.90498 6.15905 6.87627 6.23846C6.79207 6.48226 6.76885 6.74298 6.80864 6.99783C6.89216 7.61732 7.28773 8.44125 8.32072 9.5306L9.11032 8.78199C8.15163 7.77206 7.92617 7.15104 7.8862 6.85282C7.86622 6.70884 7.88928 6.63454 7.89696 6.61148C7.90158 6.5997 7.90465 6.59662 7.90055 6.60277C7.89434 6.61209 7.88731 6.62083 7.87954 6.6289L7.87339 6.63608L7.86725 6.64223C7.86673 6.64274 7.86622 6.64325 7.47219 6.26869L7.4727 6.2692ZM8.32072 9.5306C9.35115 10.6164 10.1407 11.0452 10.752 11.137C11.0656 11.1841 11.3193 11.1406 11.5119 11.0627C11.6188 11.0196 11.718 10.9597 11.806 10.8854C11.8198 10.8732 11.8332 10.8606 11.846 10.8475L11.8491 10.8444C11.8496 10.8439 11.8501 10.8434 11.4561 10.4688C11.0625 10.0937 11.0625 10.0937 11.0636 10.0927L11.0661 10.0901C11.0781 10.0781 11.0907 10.0668 11.1041 10.0563C11.1112 10.0512 11.1117 10.0517 11.1046 10.0548C11.0428 10.0739 10.977 10.0764 10.914 10.062C10.6526 10.023 10.0716 9.79551 9.10981 8.78148L8.32072 9.5306ZM7.39994 2.62197C6.69745 1.61921 5.28784 1.4865 4.4388 2.3796L5.22687 3.12873C5.58657 2.74955 6.18812 2.78747 6.5094 3.24606L7.39994 2.62197ZM13.6824 13.6308C13.4903 13.8332 13.2925 13.9387 13.106 13.9603L13.2254 15.0399C13.7434 14.983 14.1625 14.7022 14.47 14.3794L13.6824 13.6308ZM8.06503 6.43522C8.73576 5.72965 8.80442 4.62595 8.24642 3.82917L7.35639 4.45276C7.62488 4.83603 7.58235 5.36431 7.27697 5.68609L8.06503 6.43522ZM14.451 11.0965C14.9716 11.3916 15.0874 12.153 14.6642 12.5978L15.4522 13.3469C16.3556 12.3964 16.1301 10.7988 14.987 10.1506L14.451 11.0965ZM12.1652 10.5118C12.4296 10.2331 12.8288 10.1752 13.1562 10.3612L13.6927 9.41583C13.3239 9.20506 12.8944 9.1242 12.4744 9.18723C12.0543 9.25026 11.6678 9.453 11.3772 9.76272L12.1652 10.5118ZM8.9525 12.874C8.28895 12.4615 7.5844 11.9025 6.86449 11.1436L6.07591 11.8912C6.85731 12.7136 7.63206 13.3346 8.37811 13.7978L8.95148 12.874L8.9525 12.874ZM13.1055 13.9598C12.5417 14.0164 11.9726 13.987 11.4176 13.8726L11.206 14.9389C11.87 15.0746 12.5507 15.1085 13.2249 15.0394L13.1055 13.9598Z" fill="#285196"/>
</svg>
