<svg xmlns="http://www.w3.org/2000/svg" width="320" height="542" viewBox="0 0 320 542" fill="none">
  <path opacity="0.2" fill-rule="evenodd" clip-rule="evenodd" d="M320 438.963C302.073 439.064 285.661 441.994 257.49 412.006L160.019 296.761C149.733 284.091 136.047 272.36 116.597 264.439C305.692 217.536 271.135 0 88.592 0H-3.71616L-99 92.7839H41.0538C154.026 92.7839 180.848 204.543 110.438 262.125C96.0363 257.154 78.7422 254.183 57.6429 254.183H-4.64931L-99 346.078H-36.4382C8.13469 346.078 58.4931 349.675 88.0114 385.907C91.6091 390.323 175.737 492.948 180.475 499.283C225.473 559.633 274.826 538.365 274.826 538.365L274.846 538.334L320 438.963Z" fill="url(#paint0_linear_76_2430)"/>
  <defs>
    <linearGradient id="paint0_linear_76_2430" x1="-99" y1="271" x2="320" y2="271" gradientUnits="userSpaceOnUse">
      <stop stop-color="#013A98"/>
      <stop offset="1" stop-color="#449DD1"/>
    </linearGradient>
  </defs>
</svg>