<svg width="35" height="34" viewBox="0 0 35 34" fill="none" xmlns="http://www.w3.org/2000/svg">
<path opacity="0.5" d="M21.3696 22.8331L20.6175 23.6265C20.6175 23.6265 18.8274 25.5092 13.943 20.367C9.0586 15.2247 10.8487 13.3421 10.8487 13.3421L11.3231 12.8412C12.4901 11.6114 12.6008 9.63786 11.581 8.19651L9.49828 5.24936C8.23545 3.4642 5.79739 3.22949 4.35109 4.75183L1.75765 7.4808C1.04194 8.23618 0.562591 9.21306 0.620443 10.299C0.769206 13.0759 1.956 19.0479 8.5743 26.0183C15.5943 33.4069 22.1811 33.7011 24.8738 33.435C25.7267 33.3523 26.4672 32.8912 27.0639 32.263L29.411 29.7903C30.9978 28.1208 30.5515 25.2613 28.5217 24.0943L25.3647 22.2761C24.0324 21.5108 22.4109 21.7356 21.3696 22.8315V22.8331Z" fill="#285196"/>
<path d="M25.4091 16.9687C27.2063 16.9684 28.9545 16.3822 30.3887 15.299C31.8229 14.2158 32.8649 12.6946 33.3567 10.966C33.8486 9.23733 33.7636 7.39545 33.1146 5.71947C32.4655 4.04349 31.2878 2.62477 29.76 1.6783C28.2321 0.73183 26.4373 0.309208 24.6477 0.47448C22.858 0.639751 21.171 1.38391 19.8423 2.59417C18.5137 3.80444 17.6157 5.41485 17.2846 7.18135C16.9534 8.94784 17.2072 10.7741 18.0073 12.3835C18.1586 12.6757 18.1979 13.0131 18.118 13.3322L17.6255 15.1719C17.5767 15.3541 17.5767 15.5459 17.6255 15.728C17.6744 15.9101 17.7703 16.0762 17.9036 16.2095C18.0369 16.3429 18.203 16.4388 18.3851 16.4876C18.5673 16.5364 18.759 16.5364 18.9412 16.4877L20.7809 15.9951C21.1001 15.9152 21.4375 15.9546 21.7297 16.1058C22.8726 16.6749 24.1323 16.9703 25.4091 16.9687Z" fill="#03B153"/>
<path d="M30.8029 3.61159C30.1535 2.95562 29.38 2.43552 28.5275 2.08162C27.675 1.72773 26.7605 1.54712 25.8375 1.55034C21.97 1.55034 18.8179 4.70242 18.8179 8.56992C18.8179 9.8095 19.1437 11.0137 19.7529 12.0762L18.7612 15.717L22.48 14.7395C23.5071 15.2991 24.6616 15.5966 25.8375 15.5966C29.705 15.5966 32.8571 12.4445 32.8571 8.577C32.8571 6.69992 32.1275 4.93617 30.8029 3.61159ZM25.8375 14.4066C24.7891 14.4066 23.7621 14.1233 22.8625 13.592L22.65 13.4645L20.44 14.0453L21.0279 11.892L20.8862 11.6724C20.3038 10.7424 19.9945 9.6673 19.9937 8.56992C19.9937 5.35408 22.6146 2.73325 25.8304 2.73325C27.3887 2.73325 28.855 3.34242 29.9529 4.44742C30.4965 4.98856 30.9274 5.63222 31.2204 6.34109C31.5134 7.04997 31.6628 7.80995 31.66 8.577C31.6741 11.7928 29.0533 14.4066 25.8375 14.4066ZM29.0391 10.0433C28.8621 9.95825 27.9979 9.53325 27.8421 9.4695C27.6791 9.41284 27.5658 9.3845 27.4454 9.5545C27.325 9.73159 26.9921 10.1283 26.8929 10.2416C26.7937 10.362 26.6875 10.3762 26.5104 10.2841C26.3333 10.1991 25.7666 10.0078 25.1008 9.41284C24.5766 8.94534 24.2296 8.37159 24.1233 8.1945C24.0241 8.01742 24.1091 7.92533 24.2012 7.83325C24.2791 7.75534 24.3783 7.62783 24.4633 7.52867C24.5483 7.4295 24.5837 7.35158 24.6404 7.23825C24.6971 7.11784 24.6687 7.01867 24.6262 6.93367C24.5837 6.84867 24.2296 5.9845 24.0879 5.63034C23.9462 5.29034 23.7975 5.33284 23.6912 5.32575H23.3512C23.2308 5.32575 23.0466 5.36825 22.8837 5.54534C22.7279 5.72242 22.2746 6.14742 22.2746 7.01159C22.2746 7.87575 22.905 8.71159 22.99 8.82492C23.075 8.94534 24.2296 10.7162 25.9862 11.4741C26.4041 11.6583 26.73 11.7645 26.985 11.8424C27.4029 11.977 27.7854 11.9558 28.09 11.9133C28.43 11.8637 29.1312 11.4883 29.2729 11.0774C29.4216 10.6666 29.4216 10.3195 29.3721 10.2416C29.3225 10.1637 29.2162 10.1283 29.0391 10.0433Z" fill="white"/>
</svg>
