<svg width="490" height="259" viewBox="0 0 490 259" fill="none" xmlns="http://www.w3.org/2000/svg">
<path fill-rule="evenodd" clip-rule="evenodd" d="M101.1 81.4001L82.4004 103H111.2C149.3 103 174.9 125.8 174.9 159.8C174.9 178.7 168.4 199.6 152.3 213.4C154.3 214.5 156.4 215.5 158.5 216.4C163.2 218.4 168.2 220 173.3 221.1C175.4 221.5 177.7 221.9 179.9 222.1C193.5 205.3 200.9 183.3 200.9 159.8C200.9 148 198.7 136.9 194.3 126.6C190 116.4 183.7 107.5 175.5 100C167.4 92.6001 157.8 86.8001 146.9 82.8001C144.3 81.8001 141.5 81.0001 138.8 80.3001L137.7 80.6001L138.1 80.1001C137.7 80.0001 137.4 79.9001 137 79.8001L206.2 0.100098H44.4004V26.2001H148.9L101.1 81.4001Z" fill="url(#paint0_linear_0_1)"/>
<path fill-rule="evenodd" clip-rule="evenodd" d="M99.4004 228.9C52.2004 226.6 31.0004 193.1 27.2004 164.2L27.0004 162.8L26.5004 161.5H0.900391C0.900391 163.8 1.00039 165.3 1.20039 167.6C4.20039 190.7 14.7004 211.9 30.7004 227.4C49.4004 245.5 75.0004 255.1 104.5 255.1C113.7 255.1 122 254.2 129.5 252.5C118.4 246.3 108.2 238.3 99.4004 228.9Z" fill="url(#paint1_linear_0_1)"/>
<path d="M262.5 190.3H292.9C287.2 203.7 279 215.7 268.9 225.8C248.4 246.3 220.2 258.9 189 258.9C181.3 258.9 173.6 258.1 166.1 256.5C158.5 254.9 151.2 252.6 144.2 249.6C128.3 242.7 114.3 232.4 103.3 219.5C92.3004 206.7 84.1004 191.4 79.7004 174.6C78.5004 170 77.6004 165.3 76.9004 160.4C76.3004 155.4 75.9004 150.6 75.9004 145.9C75.9004 135.7 77.3004 125.6 79.9004 116H108.3C107.6 117.9 107 119.8 106.4 121.7C104.2 129.3 103 137.4 103 145.9C103 149.9 103.2 153.6 103.6 157C104.1 160.6 104.8 164.2 105.7 167.8C109 180.5 115.3 192.2 123.7 201.9C132.2 211.7 142.8 219.6 154.8 224.8C160 227.1 165.6 228.8 171.4 230C176.9 231.1 182.7 231.7 188.9 231.7C212.6 231.7 234.1 222.1 249.6 206.5C254.6 201.7 258.9 196.2 262.5 190.3Z" fill="url(#paint2_linear_0_1)"/>
<path d="M189 59.9999C180.6 59.9999 172.5 61.1999 164.9 63.3999L191.4 32.8999C221.6 33.4999 249 45.9999 268.9 65.9999C283.4 80.4999 293.9 98.7999 298.9 119.3H270.7C266.5 106.3 259.2 94.5999 249.7 85.0999C234.2 69.5999 212.7 59.9999 189 59.9999Z" fill="url(#paint3_linear_0_1)"/>
<path d="M242.3 164.1V149.2L231 131.9H234.8L244.6 146.9H243.2L253 131.9H256.8L245.6 149.1V164H242.3V164.1ZM266.6 164.6C264.4 164.6 262.5 164.1 260.7 163C259 161.9 257.6 160.5 256.6 158.6C255.6 156.7 255.1 154.7 255.1 152.3C255.1 150 255.6 147.9 256.6 146.1C257.6 144.3 258.9 142.9 260.6 141.8C262.3 140.8 264.2 140.2 266.3 140.2C268 140.2 269.5 140.5 270.7 141.2C272 141.8 273.1 142.6 274.1 143.7C275 144.7 275.7 145.9 276.2 147.2C276.7 148.5 276.9 149.8 276.9 151.2C276.9 151.5 276.9 151.8 276.9 152.2C276.9 152.5 276.8 152.9 276.8 153.3H257.2V150.3H274.9L273.3 151.6C273.6 150 273.4 148.6 272.7 147.4C272.1 146.1 271.2 145.1 270.1 144.4C268.9 143.7 267.7 143.3 266.2 143.3C264.7 143.3 263.4 143.7 262.2 144.4C261 145.1 260 146.2 259.3 147.6C258.6 148.9 258.3 150.5 258.5 152.4C258.4 154.2 258.6 155.9 259.4 157.2C260.1 158.6 261.2 159.6 262.4 160.4C263.7 161.1 265.1 161.5 266.5 161.5C268.2 161.5 269.6 161.1 270.8 160.3C272 159.5 272.9 158.5 273.6 157.3L276.4 158.8C275.9 159.8 275.2 160.8 274.3 161.7C273.3 162.6 272.2 163.3 270.9 163.8C269.6 164.3 268.2 164.6 266.6 164.6ZM288.5 164.6C287 164.6 285.7 164.3 284.6 163.8C283.4 163.2 282.5 162.4 281.9 161.5C281.2 160.5 280.9 159.4 280.9 158.1C280.9 156.9 281.2 155.8 281.7 154.8C282.2 153.8 283 152.9 284.1 152.3C285.2 151.6 286.6 151.1 288.3 150.8L297.4 149.3V152.2L289.1 153.6C287.4 153.9 286.2 154.4 285.5 155.2C284.8 156 284.4 156.9 284.4 158C284.4 159 284.8 159.9 285.6 160.6C286.4 161.3 287.5 161.7 288.8 161.7C290.4 161.7 291.8 161.4 292.9 160.7C294.1 160 295 159.1 295.7 157.9C296.4 156.7 296.7 155.5 296.7 154.1V148.2C296.7 146.8 296.2 145.7 295.2 144.8C294.2 143.9 292.9 143.5 291.3 143.5C289.9 143.5 288.7 143.9 287.6 144.6C286.5 145.3 285.7 146.2 285.2 147.3L282.3 145.7C282.7 144.7 283.4 143.8 284.3 143C285.3 142.2 286.3 141.6 287.5 141.1C288.7 140.6 290 140.4 291.3 140.4C293 140.4 294.5 140.7 295.8 141.4C297.1 142.1 298.1 143 298.9 144.2C299.6 145.4 300 146.7 300 148.2V164.1H296.8V159.5L297.3 160C296.9 160.9 296.3 161.7 295.4 162.4C294.6 163.1 293.6 163.7 292.4 164.1C291 164.4 289.8 164.6 288.5 164.6ZM306 164.1V140.9H309.2V144.7L308.8 144.1C309.3 143 310.2 142.1 311.3 141.5C312.4 140.9 313.8 140.5 315.4 140.5H316.9V143.7H314.9C313.2 143.7 311.9 144.2 310.9 145.3C309.9 146.3 309.4 147.8 309.4 149.7V164H306V164.1ZM328.2 164.6C326 164.6 324 164 322.4 162.9C320.7 161.8 319.5 160.3 318.8 158.3L321.5 157C322.2 158.4 323.1 159.5 324.3 160.4C325.5 161.2 326.8 161.7 328.3 161.7C329.7 161.7 330.8 161.4 331.8 160.7C332.7 160 333.2 159.1 333.2 158C333.2 157.2 333 156.6 332.5 156.1C332 155.6 331.5 155.2 330.9 155C330.3 154.7 329.8 154.6 329.3 154.4L326 153.4C323.9 152.8 322.3 151.9 321.4 150.9C320.4 149.8 320 148.5 320 147.1C320 145.7 320.3 144.6 321 143.6C321.7 142.6 322.6 141.8 323.8 141.3C325 140.8 326.3 140.5 327.7 140.5C329.7 140.5 331.4 141 333 142.1C334.6 143.1 335.8 144.5 336.4 146.3L333.6 147.6C333 146.3 332.2 145.3 331.1 144.6C330 143.9 328.8 143.5 327.5 143.5C326.2 143.5 325.2 143.8 324.4 144.5C323.6 145.2 323.2 146 323.2 147C323.2 147.8 323.4 148.4 323.8 148.9C324.2 149.4 324.7 149.7 325.2 149.9C325.7 150.1 326.2 150.3 326.6 150.4L330.4 151.5C332.3 152 333.7 152.9 334.8 154C335.9 155.2 336.4 156.5 336.4 158.1C336.4 159.4 336 160.5 335.3 161.5C334.6 162.5 333.6 163.3 332.4 163.9C331.3 164.3 329.9 164.6 328.2 164.6ZM359.5 164.6C357.3 164.6 355.3 164.1 353.5 163C351.7 161.9 350.3 160.5 349.2 158.7C348.2 156.9 347.6 154.8 347.6 152.4C347.6 150.1 348.1 148 349.2 146.2C350.2 144.4 351.6 143 353.4 141.9C355.2 140.8 357.2 140.3 359.4 140.3C361.6 140.3 363.6 140.8 365.4 141.9C367.2 142.9 368.6 144.4 369.6 146.2C370.6 148 371.2 150.1 371.2 152.4C371.2 154.8 370.7 156.9 369.6 158.7C368.5 160.5 367.1 161.9 365.3 163C363.6 164.1 361.7 164.6 359.5 164.6ZM359.5 161.4C361.1 161.4 362.5 161 363.7 160.2C365 159.4 366 158.4 366.7 157C367.4 155.6 367.8 154.1 367.8 152.5C367.8 150.8 367.4 149.3 366.7 148C366 146.7 365 145.6 363.7 144.8C362.5 144 361.1 143.6 359.5 143.6C357.9 143.6 356.5 144 355.3 144.8C354.1 145.6 353.1 146.6 352.3 148C351.6 149.3 351.2 150.8 351.2 152.5C351.2 154.2 351.6 155.7 352.3 157C353 158.4 354 159.4 355.3 160.2C356.5 161 358 161.4 359.5 161.4ZM378.1 164.1V144.2H373.5V141H378.1V138.9C378.1 137.3 378.5 135.9 379.2 134.8C379.9 133.7 380.9 132.8 382.1 132.3C383.3 131.8 384.5 131.4 385.9 131.4C386.2 131.4 386.5 131.4 386.9 131.5C387.3 131.5 387.6 131.6 387.8 131.6V134.5C387.6 134.4 387.3 134.4 387 134.4C386.7 134.4 386.4 134.4 386.3 134.4C384.9 134.4 383.8 134.7 382.8 135.4C381.9 136.1 381.4 137.2 381.4 138.9V141H387.1V144.2H381.4V164.1H378.1ZM405.2 164.1V135.2H396.3V132H417.5V135.2H408.7V164.1H405.2ZM418.2 164.1V140.9H421.4V144.7L421 144.1C421.5 143 422.4 142.1 423.5 141.5C424.6 140.9 426 140.5 427.6 140.5H429.1V143.7H427.1C425.4 143.7 424.1 144.2 423.1 145.3C422.1 146.3 421.6 147.8 421.6 149.7V164H418.2V164.1ZM440.6 164.6C439 164.6 437.5 164.2 436.2 163.5C434.9 162.7 433.8 161.7 433 160.3C432.3 158.9 431.9 157.3 431.9 155.5V140.9H435.1V155.1C435.1 156.3 435.3 157.4 435.8 158.4C436.3 159.3 437 160 437.9 160.6C438.8 161.1 439.9 161.4 441.1 161.4C442.3 161.4 443.3 161.1 444.3 160.6C445.2 160.1 445.9 159.3 446.5 158.3C447 157.3 447.3 156.1 447.3 154.7V140.9H450.5V164.1H447.3V159.6L448 159.8C447.5 161.3 446.5 162.5 445.2 163.3C443.9 164.2 442.3 164.6 440.6 164.6ZM464.8 164.6C462.6 164.6 460.6 164 459 162.9C457.3 161.8 456.1 160.3 455.4 158.3L458.1 157C458.8 158.4 459.7 159.5 460.9 160.4C462.1 161.2 463.4 161.7 464.9 161.7C466.3 161.7 467.4 161.4 468.4 160.7C469.4 160 469.8 159.1 469.8 158C469.8 157.2 469.6 156.6 469.1 156.1C468.6 155.6 468.1 155.2 467.5 155C466.9 154.7 466.4 154.6 465.9 154.4L462.6 153.4C460.5 152.8 458.9 151.9 458 150.9C457 149.8 456.6 148.5 456.6 147.1C456.6 145.7 456.9 144.6 457.6 143.6C458.3 142.6 459.2 141.8 460.4 141.3C461.6 140.8 462.9 140.5 464.3 140.5C466.3 140.5 468 141 469.6 142.1C471.2 143.1 472.4 144.5 473 146.3L470.2 147.6C469.6 146.3 468.8 145.3 467.7 144.6C466.6 143.9 465.4 143.5 464.1 143.5C462.8 143.5 461.8 143.8 461 144.5C460.2 145.2 459.8 146 459.8 147C459.8 147.8 460 148.4 460.4 148.9C460.8 149.4 461.3 149.7 461.8 149.9C462.3 150.1 462.8 150.3 463.2 150.4L467 151.5C468.9 152 470.3 152.9 471.4 154C472.5 155.2 473 156.5 473 158.1C473 159.4 472.6 160.5 471.9 161.5C471.2 162.5 470.2 163.3 469 163.9C467.8 164.3 466.4 164.6 464.8 164.6ZM487.1 164.3C485 164.3 483.4 163.7 482.3 162.5C481.2 161.3 480.6 159.6 480.6 157.3V144.1H476.3V140.9H477.4C478.4 140.9 479.2 140.6 479.7 139.9C480.3 139.2 480.6 138.4 480.6 137.4V135.5H483.8V140.9H488.9V144.1H483.8V157.3C483.8 158.1 483.9 158.8 484.1 159.4C484.3 160 484.7 160.4 485.3 160.8C485.9 161.1 486.6 161.3 487.6 161.3C487.8 161.3 488.1 161.3 488.4 161.3C488.7 161.3 489 161.2 489.2 161.2V164.1C488.9 164.2 488.5 164.2 488 164.3C487.7 164.3 487.4 164.3 487.1 164.3Z" fill="url(#paint4_radial_0_1)"/>
<defs>
<linearGradient id="paint0_linear_0_1" x1="-4.54003" y1="259.154" x2="185.96" y2="17.6541" gradientUnits="userSpaceOnUse">
<stop offset="0.2071" stop-color="#8B8B8B"/>
<stop offset="0.4051" stop-color="#FEFEFE"/>
<stop offset="0.56" stop-color="#515151"/>
<stop offset="0.7455" stop-color="#FFF0C3"/>
<stop offset="0.8196" stop-color="#F5D87D"/>
<stop offset="0.9641" stop-color="#AE8543"/>
</linearGradient>
<linearGradient id="paint1_linear_0_1" x1="13.1611" y1="273.117" x2="203.661" y2="31.617" gradientUnits="userSpaceOnUse">
<stop offset="0.2071" stop-color="#8B8B8B"/>
<stop offset="0.4051" stop-color="#FEFEFE"/>
<stop offset="0.56" stop-color="#515151"/>
<stop offset="0.7455" stop-color="#FFF0C3"/>
<stop offset="0.8196" stop-color="#F5D87D"/>
<stop offset="0.9641" stop-color="#AE8543"/>
</linearGradient>
<linearGradient id="paint2_linear_0_1" x1="55.9693" y1="24.7939" x2="227.905" y2="242.759" gradientUnits="userSpaceOnUse">
<stop offset="0.2071" stop-color="#8B8B8B"/>
<stop offset="0.4051" stop-color="#FEFEFE"/>
<stop offset="0.56" stop-color="#515151"/>
<stop offset="0.7455" stop-color="#FFF0C3"/>
<stop offset="0.8196" stop-color="#F5D87D"/>
<stop offset="0.9641" stop-color="#AE8543"/>
</linearGradient>
<linearGradient id="paint3_linear_0_1" x1="156.652" y1="-12.3172" x2="269.941" y2="131.301" gradientUnits="userSpaceOnUse">
<stop offset="0.2071" stop-color="#8B8B8B"/>
<stop offset="0.4051" stop-color="#FEFEFE"/>
<stop offset="0.56" stop-color="#515151"/>
<stop offset="0.7455" stop-color="#FFF0C3"/>
<stop offset="0.8196" stop-color="#F5D87D"/>
<stop offset="0.9641" stop-color="#AE8543"/>
</linearGradient>
<radialGradient id="paint4_radial_0_1" cx="0" cy="0" r="1" gradientUnits="userSpaceOnUse" gradientTransform="translate(358.119 148.094) scale(134.51 66.4912)">
<stop stop-color="#A2952A"/>
<stop offset="0.08" stop-color="#BE8C3C"/>
<stop offset="0.18" stop-color="#BE8C3C"/>
<stop offset="0.27" stop-color="#D3B15F"/>
<stop offset="0.34" stop-color="#FAF0A0"/>
<stop offset="0.41" stop-color="#FFFFC2"/>
<stop offset="0.48" stop-color="#FAF0A0"/>
<stop offset="0.59" stop-color="#D3B15F"/>
<stop offset="0.67" stop-color="#BE8C3C"/>
<stop offset="0.77" stop-color="#B17B32"/>
<stop offset="0.83" stop-color="#BB8332"/>
<stop offset="0.88" stop-color="#D4A245"/>
<stop offset="0.93" stop-color="#E1B453"/>
<stop offset="1" stop-color="#A4692A"/>
</radialGradient>
</defs>
</svg>
