<svg width="469" height="259" viewBox="0 0 469 259" fill="none" xmlns="http://www.w3.org/2000/svg">
<path fill-rule="evenodd" clip-rule="evenodd" d="M100.128 81.139L81.3506 102.755H110.102C148.211 102.755 173.814 125.566 173.814 159.522C173.814 178.47 167.341 199.307 151.255 213.117C153.284 214.225 155.359 215.243 157.476 216.158C162.209 218.205 167.202 219.78 172.319 220.835C174.467 221.278 176.671 221.621 178.916 221.874C192.478 205.079 199.921 183.058 199.921 159.525C199.921 147.749 197.706 136.592 193.342 126.363C189.011 116.211 182.693 107.271 174.562 99.7849C166.473 92.3373 156.834 86.5629 145.916 82.6239C143.271 81.67 140.562 80.8348 137.799 80.1079L136.68 80.4327L137.116 79.93C136.744 79.8346 136.373 79.7418 136.002 79.6516L205.197 0H43.3887V26.1088H147.93L100.12 81.1416L100.128 81.139Z" fill="url(#paint0_linear_0_1)"/>
<path fill-rule="evenodd" clip-rule="evenodd" d="M98.4496 228.615C51.2536 226.323 30.0247 192.79 26.2223 163.925L26.0418 162.551L25.565 161.211L0 161.198C0 163.513 0.0876633 165.024 0.337718 167.333C3.37963 190.429 13.8536 211.663 29.8339 227.13C48.5726 245.265 74.0936 254.853 103.631 254.853C112.844 254.853 121.145 253.904 128.608 252.272C117.41 246.026 107.173 238.004 98.447 228.617L98.4496 228.615Z" fill="url(#paint1_linear_0_1)"/>
<path d="M267.887 65.6588C247.959 45.7317 220.624 33.2109 190.369 32.5793L163.843 63.0757C171.435 60.8742 179.524 59.691 187.964 59.691C211.686 59.691 233.16 69.3039 248.702 84.8486C264.244 100.391 273.859 121.864 273.859 145.586C273.859 169.308 264.246 190.782 248.702 206.324C233.16 221.866 211.686 231.481 187.964 231.481C181.834 231.481 175.99 230.886 170.486 229.749C164.681 228.553 159.12 226.784 153.867 224.513C141.851 219.316 131.238 211.423 122.782 201.583C114.399 191.828 108.171 180.21 104.835 167.467C103.897 163.892 103.188 160.285 102.724 156.666C102.293 153.302 102.069 149.61 102.069 145.591C102.069 137.074 103.257 128.951 105.474 121.375C106.036 119.457 106.668 117.565 107.361 115.698H78.9789C76.3392 125.311 74.9316 135.337 74.9316 145.591C74.9316 150.226 75.2616 155.06 75.9035 160.058C76.5299 164.951 77.4528 169.687 78.6515 174.252C83.0649 191.114 91.2393 206.409 102.216 219.182C113.298 232.077 127.276 242.453 143.161 249.323C150.165 252.355 157.499 254.693 165.08 256.255C172.608 257.807 180.267 258.621 187.967 258.621C219.18 258.621 247.436 245.969 267.892 225.514C288.347 205.058 300.999 176.802 300.999 145.589C300.999 114.376 288.347 86.1195 267.892 65.6639L267.887 65.6588Z" fill="url(#paint2_linear_0_1)"/>
<path d="M221.659 161V146.053L210.384 128.816H214.229L224.078 143.806H222.696L232.502 128.816H236.347L225.115 146.053V161H221.659ZM245.956 161.518C243.796 161.518 241.838 161 240.081 159.963C238.353 158.898 236.985 157.443 235.977 155.6C234.969 153.757 234.465 151.669 234.465 149.336C234.465 147.003 234.955 144.944 235.934 143.158C236.913 141.344 238.238 139.918 239.908 138.882C241.608 137.845 243.508 137.326 245.611 137.326C247.281 137.326 248.764 137.643 250.06 138.277C251.385 138.882 252.508 139.717 253.43 140.782C254.352 141.819 255.057 143 255.547 144.325C256.036 145.621 256.281 146.96 256.281 148.342C256.281 148.63 256.267 148.962 256.238 149.336C256.209 149.682 256.166 150.042 256.108 150.416H236.539V147.392H254.251L252.696 148.688C252.955 147.104 252.768 145.693 252.134 144.454C251.529 143.187 250.651 142.194 249.499 141.474C248.347 140.725 247.051 140.35 245.611 140.35C244.171 140.35 242.832 140.725 241.593 141.474C240.384 142.222 239.433 143.274 238.742 144.627C238.051 145.952 237.777 147.536 237.921 149.379C237.777 151.222 238.065 152.835 238.785 154.218C239.534 155.571 240.542 156.622 241.809 157.371C243.105 158.12 244.488 158.494 245.956 158.494C247.656 158.494 249.081 158.091 250.233 157.285C251.385 156.478 252.321 155.47 253.041 154.261L255.806 155.73C255.345 156.766 254.64 157.731 253.689 158.624C252.739 159.488 251.601 160.194 250.276 160.741C248.98 161.259 247.54 161.518 245.956 161.518ZM267.836 161.518C266.367 161.518 265.057 161.245 263.905 160.698C262.753 160.122 261.845 159.344 261.183 158.365C260.521 157.386 260.189 156.262 260.189 154.995C260.189 153.786 260.449 152.691 260.967 151.712C261.485 150.704 262.292 149.854 263.386 149.163C264.481 148.472 265.877 147.982 267.577 147.694L276.649 146.182V149.12L268.354 150.502C266.684 150.79 265.474 151.323 264.725 152.101C264.005 152.878 263.645 153.8 263.645 154.866C263.645 155.902 264.049 156.781 264.855 157.501C265.69 158.221 266.756 158.581 268.052 158.581C269.636 158.581 271.018 158.25 272.199 157.587C273.38 156.896 274.301 155.974 274.964 154.822C275.626 153.67 275.957 152.389 275.957 150.978V145.102C275.957 143.72 275.453 142.597 274.445 141.733C273.437 140.869 272.127 140.437 270.514 140.437C269.103 140.437 267.865 140.797 266.799 141.517C265.733 142.208 264.941 143.115 264.423 144.238L261.485 142.64C261.917 141.661 262.594 140.768 263.516 139.962C264.466 139.155 265.546 138.522 266.756 138.061C267.965 137.571 269.218 137.326 270.514 137.326C272.213 137.326 273.711 137.658 275.007 138.32C276.332 138.982 277.354 139.904 278.074 141.085C278.823 142.237 279.197 143.576 279.197 145.102V161H275.957V156.378L276.433 156.853C276.029 157.717 275.396 158.509 274.532 159.229C273.697 159.92 272.703 160.482 271.551 160.914C270.428 161.317 269.189 161.518 267.836 161.518ZM285.43 161V137.845H288.67V141.646L288.238 141.085C288.785 139.99 289.606 139.126 290.7 138.493C291.823 137.859 293.177 137.542 294.761 137.542H296.23V140.782H294.199C292.529 140.782 291.19 141.301 290.182 142.338C289.174 143.374 288.67 144.843 288.67 146.744V161H285.43ZM307.63 161.518C305.412 161.518 303.468 160.957 301.798 159.834C300.127 158.71 298.918 157.184 298.169 155.254L300.891 153.958C301.553 155.37 302.475 156.493 303.655 157.328C304.865 158.163 306.19 158.581 307.63 158.581C309.012 158.581 310.179 158.25 311.129 157.587C312.079 156.896 312.555 156.003 312.555 154.909C312.555 154.102 312.324 153.469 311.863 153.008C311.403 152.518 310.87 152.144 310.265 151.885C309.66 151.626 309.127 151.438 308.667 151.323L305.34 150.373C303.209 149.768 301.668 148.918 300.718 147.824C299.767 146.73 299.292 145.462 299.292 144.022C299.292 142.669 299.638 141.488 300.329 140.48C301.02 139.472 301.956 138.694 303.137 138.147C304.318 137.6 305.628 137.326 307.068 137.326C309.027 137.326 310.798 137.845 312.382 138.882C313.995 139.89 315.132 141.301 315.795 143.115L313.03 144.411C312.454 143.115 311.619 142.107 310.524 141.387C309.459 140.638 308.263 140.264 306.939 140.264C305.643 140.264 304.606 140.595 303.828 141.258C303.051 141.92 302.662 142.755 302.662 143.763C302.662 144.541 302.863 145.16 303.267 145.621C303.67 146.082 304.131 146.427 304.649 146.658C305.196 146.888 305.671 147.061 306.075 147.176L309.919 148.299C311.791 148.846 313.246 149.696 314.283 150.848C315.348 152 315.881 153.354 315.881 154.909C315.881 156.176 315.521 157.314 314.801 158.322C314.11 159.33 313.145 160.122 311.907 160.698C310.668 161.245 309.243 161.518 307.63 161.518ZM338.894 161.518C336.705 161.518 334.718 161 332.932 159.963C331.147 158.898 329.721 157.458 328.656 155.643C327.619 153.8 327.1 151.712 327.1 149.379C327.1 147.075 327.619 145.016 328.656 143.202C329.692 141.387 331.089 139.962 332.846 138.925C334.632 137.859 336.648 137.326 338.894 137.326C341.14 137.326 343.142 137.845 344.899 138.882C346.684 139.918 348.081 141.344 349.089 143.158C350.126 144.973 350.644 147.046 350.644 149.379C350.644 151.741 350.112 153.843 349.046 155.686C347.98 157.501 346.555 158.926 344.769 159.963C343.012 161 341.054 161.518 338.894 161.518ZM338.894 158.278C340.449 158.278 341.846 157.89 343.084 157.112C344.352 156.334 345.345 155.269 346.065 153.915C346.814 152.562 347.188 151.05 347.188 149.379C347.188 147.709 346.814 146.211 346.065 144.886C345.345 143.562 344.352 142.51 343.084 141.733C341.846 140.955 340.449 140.566 338.894 140.566C337.339 140.566 335.928 140.955 334.66 141.733C333.422 142.51 332.428 143.562 331.68 144.886C330.931 146.211 330.556 147.709 330.556 149.379C330.556 151.05 330.931 152.562 331.68 153.915C332.428 155.269 333.422 156.334 334.66 157.112C335.928 157.89 337.339 158.278 338.894 158.278ZM357.459 161V141.085H352.837V137.845H357.459V135.771C357.459 134.158 357.819 132.805 358.539 131.71C359.259 130.587 360.209 129.738 361.39 129.162C362.571 128.586 363.838 128.298 365.192 128.298C365.48 128.298 365.811 128.326 366.185 128.384C366.56 128.413 366.862 128.456 367.093 128.514V131.451C366.891 131.394 366.617 131.365 366.272 131.365C365.926 131.336 365.681 131.322 365.537 131.322C364.155 131.322 363.003 131.653 362.081 132.315C361.16 132.978 360.699 134.13 360.699 135.771V137.845H366.358V141.085H360.699V161H357.459ZM384.567 161V132.056H375.668V128.816H396.836V132.056H388.023V161H384.567ZM397.62 161V137.845H400.86V141.646L400.428 141.085C400.975 139.99 401.796 139.126 402.89 138.493C404.013 137.859 405.367 137.542 406.951 137.542H408.42V140.782H406.389C404.719 140.782 403.38 141.301 402.372 142.338C401.364 143.374 400.86 144.843 400.86 146.744V161H397.62ZM419.993 161.518C418.38 161.518 416.911 161.144 415.586 160.395C414.261 159.618 413.21 158.552 412.433 157.198C411.684 155.816 411.309 154.232 411.309 152.446V137.845H414.549V152.058C414.549 153.296 414.794 154.39 415.284 155.341C415.802 156.262 416.508 156.982 417.401 157.501C418.322 158.019 419.373 158.278 420.554 158.278C421.735 158.278 422.786 158.019 423.708 157.501C424.629 156.954 425.349 156.19 425.868 155.211C426.386 154.203 426.645 153.008 426.645 151.626V137.845H429.885V161H426.645V156.507L427.38 156.68C426.833 158.178 425.897 159.358 424.572 160.222C423.247 161.086 421.721 161.518 419.993 161.518ZM444.152 161.518C441.934 161.518 439.99 160.957 438.32 159.834C436.649 158.71 435.44 157.184 434.691 155.254L437.413 153.958C438.075 155.37 438.997 156.493 440.177 157.328C441.387 158.163 442.712 158.581 444.152 158.581C445.534 158.581 446.701 158.25 447.651 157.587C448.601 156.896 449.077 156.003 449.077 154.909C449.077 154.102 448.846 153.469 448.385 153.008C447.925 152.518 447.392 152.144 446.787 151.885C446.182 151.626 445.649 151.438 445.189 151.323L441.862 150.373C439.731 149.768 438.19 148.918 437.24 147.824C436.289 146.73 435.814 145.462 435.814 144.022C435.814 142.669 436.16 141.488 436.851 140.48C437.542 139.472 438.478 138.694 439.659 138.147C440.84 137.6 442.15 137.326 443.59 137.326C445.549 137.326 447.32 137.845 448.904 138.882C450.517 139.89 451.654 141.301 452.317 143.115L449.552 144.411C448.976 143.115 448.141 142.107 447.046 141.387C445.981 140.638 444.785 140.264 443.461 140.264C442.165 140.264 441.128 140.595 440.35 141.258C439.573 141.92 439.184 142.755 439.184 143.763C439.184 144.541 439.385 145.16 439.789 145.621C440.192 146.082 440.653 146.427 441.171 146.658C441.718 146.888 442.193 147.061 442.597 147.176L446.441 148.299C448.313 148.846 449.768 149.696 450.805 150.848C451.87 152 452.403 153.354 452.403 154.909C452.403 156.176 452.043 157.314 451.323 158.322C450.632 159.33 449.667 160.122 448.429 160.698C447.19 161.245 445.765 161.518 444.152 161.518ZM466.52 161.259C464.447 161.259 462.848 160.654 461.725 159.445C460.602 158.235 460.04 156.507 460.04 154.261V141.085H455.764V137.845H456.844C457.823 137.845 458.6 137.528 459.176 136.894C459.752 136.232 460.04 135.411 460.04 134.432V132.488H463.28V137.845H468.378V141.085H463.28V154.261C463.28 155.038 463.396 155.73 463.626 156.334C463.856 156.91 464.245 157.371 464.792 157.717C465.368 158.062 466.132 158.235 467.082 158.235C467.312 158.235 467.586 158.221 467.903 158.192C468.22 158.163 468.493 158.134 468.724 158.106V161C468.378 161.086 467.989 161.144 467.557 161.173C467.125 161.23 466.78 161.259 466.52 161.259Z" fill="url(#paint3_angular_0_1)"/>
<defs>
<linearGradient id="paint0_linear_0_1" x1="13" y1="273.5" x2="203.5" y2="32" gradientUnits="userSpaceOnUse">
<stop offset="0.207127" stop-color="#8B8B8B"/>
<stop offset="0.40506" stop-color="#FEFEFE"/>
<stop offset="0.560038" stop-color="#515151"/>
<stop offset="0.745471" stop-color="#FFF0C3"/>
<stop offset="0.819567" stop-color="#F5D87D"/>
<stop offset="0.964145" stop-color="#AE8543"/>
</linearGradient>
<linearGradient id="paint1_linear_0_1" x1="13" y1="273.5" x2="203.5" y2="32" gradientUnits="userSpaceOnUse">
<stop offset="0.207127" stop-color="#8B8B8B"/>
<stop offset="0.40506" stop-color="#FEFEFE"/>
<stop offset="0.560038" stop-color="#515151"/>
<stop offset="0.745471" stop-color="#FFF0C3"/>
<stop offset="0.819567" stop-color="#F5D87D"/>
<stop offset="0.964145" stop-color="#AE8543"/>
</linearGradient>
<linearGradient id="paint2_linear_0_1" x1="13" y1="273.5" x2="203.5" y2="32" gradientUnits="userSpaceOnUse">
<stop offset="0.207127" stop-color="#8B8B8B"/>
<stop offset="0.40506" stop-color="#FEFEFE"/>
<stop offset="0.560038" stop-color="#515151"/>
<stop offset="0.745471" stop-color="#FFF0C3"/>
<stop offset="0.819567" stop-color="#F5D87D"/>
<stop offset="0.964145" stop-color="#AE8543"/>
</linearGradient>
<radialGradient id="paint3_angular_0_1" cx="0" cy="0" r="1" gradientUnits="userSpaceOnUse" gradientTransform="translate(337.51 145.01) scale(134.51 66.4912)">
<stop stop-color="#A2952A"/>
<stop offset="0.08" stop-color="#BE8C3C"/>
<stop offset="0.18" stop-color="#BE8C3C"/>
<stop offset="0.27" stop-color="#D3B15F"/>
<stop offset="0.34" stop-color="#FAF0A0"/>
<stop offset="0.41" stop-color="#FFFFC2"/>
<stop offset="0.48" stop-color="#FAF0A0"/>
<stop offset="0.59" stop-color="#D3B15F"/>
<stop offset="0.67" stop-color="#BE8C3C"/>
<stop offset="0.77" stop-color="#B17B32"/>
<stop offset="0.83" stop-color="#BB8332"/>
<stop offset="0.88" stop-color="#D4A245"/>
<stop offset="0.93" stop-color="#E1B453"/>
<stop offset="1" stop-color="#A4692A"/>
</radialGradient>
</defs>
</svg>
