<svg width="154" height="69" viewBox="0 0 154 69" fill="none" xmlns="http://www.w3.org/2000/svg">
<path d="M38.087 16.4409C46.8746 1.71259 48.8282 0 50.4315 0H148.412C151.498 0 154 3.52706 154 7.87792V60.9682C154 65.3191 151.498 68.8461 148.412 68.8461H1.42131C-3.39021 68.8461 5.29774 70.1653 8.4809 65.0784L12.2472 58.2281L23.4409 40.4171L38.087 16.4409Z" fill="white"/>
<path d="M47.5177 8.39211C48.386 6.91039 49.9747 6 51.6921 6H148.529C151.201 6 153.367 8.16625 153.367 10.8385V64.1616C153.367 66.8338 151.201 69 148.529 69H20.4435C16.7049 69 14.3788 64.9408 16.2691 61.7152L47.5177 8.39211Z" fill="url(#paint0_linear_76_1114)"/>
<defs>
<linearGradient id="paint0_linear_76_1114" x1="-17.9543" y1="1.29851" x2="156.599" y2="59.2671" gradientUnits="userSpaceOnUse">
<stop stop-color="#001242"/>
<stop offset="1" stop-color="#015195"/>
</linearGradient>
</defs>
</svg>
