<svg width="737" height="202" viewBox="0 0 737 202" fill="none" xmlns="http://www.w3.org/2000/svg">
<path d="M183 48C225 5 234.337 0 242 0H710.294C725.044 0 737 10.2975 737 23V178C737 190.703 725.044 201 710.294 201H7.75888C-15.2375 201 26.2861 204.851 41.4998 190L59.5005 170L113 118L183 48Z" fill="white"/>
<path d="M233.759 31.7597C238.074 27.4322 243.934 25 250.045 25H713.999C726.702 25 736.999 35.2975 736.999 48V178C736.999 190.703 726.702 201 713.999 201H120.414C99.9394 201 89.6704 176.258 104.128 161.76L233.759 31.7597Z" fill="url(#paint0_linear_0_1)"/>
<defs>
<linearGradient id="paint0_linear_0_1" x1="-77.3912" y1="11.8657" x2="620.898" y2="406.458" gradientUnits="userSpaceOnUse">
<stop stop-color="#001242"/>
<stop offset="1" stop-color="#015195"/>
</linearGradient>
</defs>
</svg>
